<svg id="Layer_1" height="512" viewBox="0 0 150 150" width="512" xmlns="http://www.w3.org/2000/svg" data-name="Layer 1"><path d="m75 140a65 65 0 1 1 65-65 65.074 65.074 0 0 1 -65 65zm0-128a63 63 0 1 0 63 63 63.072 63.072 0 0 0 -63-63z"/><path d="m57.489 112.228a25.49 25.49 0 0 1 -18.023-43.513l27.5-27.5a1 1 0 0 1 1.414 1.414l-27.5 27.5a23.49 23.49 0 0 0 33.22 33.219l37.412-37.412a15.327 15.327 0 0 0 -21.675-21.675l-37.574 37.574a7.163 7.163 0 0 0 10.131 10.13l16-16.005a1 1 0 0 1 1.414 1.414l-16 16.005a9.163 9.163 0 1 1 -12.959-12.958l37.574-37.574a17.326 17.326 0 1 1 24.5 24.5l-37.409 37.415a25.327 25.327 0 0 1 -18.025 7.466z"/></svg>